Coordinates
version=1
nRows=12
nColumns=24
inDegrees=yes

Units are S.I. units (second, meters, Newtons, ...)
Angles are in degrees.

endheader
time	pelvis_tilt	pelvis_list	pelvis_rotation	pelvis_tx	pelvis_ty	pelvis_tz	hip_flexion_r	hip_adduction_r	hip_rotation_r	knee_angle_r	ankle_angle_r	subtalar_angle_r	mtp_angle_r	hip_flexion_l	hip_adduction_l	hip_rotation_l	knee_angle_l	ankle_angle_l	subtalar_angle_l	mtp_angle_l	lumbar_extension	lumbar_bending	lumbar_rotation
      5.10500000	     -8.44304372	     -1.74318102	     10.05203197	     -1.17354583	     -0.02606100	     -0.30610679	     32.82152674	     -3.08701416	     -8.45767099	    -10.55651347	     -1.33660677	      7.63475577	     13.35180856	     -7.17162233	     -0.32726856	     19.50730713	    -15.30273672	      5.84796962	      0.24639605	     13.77074500	      4.46006965	     -0.69429581	    -10.04638177
      5.11000000	     -8.55645898	     -1.88563870	     10.13076253	     -1.16679285	     -0.02685694	     -0.30547824	     32.82922196	     -2.94564461	     -8.68172591	    -10.94627824	     -2.10014535	      7.36000282	     14.19253622	     -7.19642700	     -0.57418767	     19.23304641	    -15.70563325	      5.38084027	      0.65374614	     14.66158047	      4.80615637	     -0.55607627	    -10.08335202
      5.11500000	     -8.65067781	     -2.04171592	     10.29484960	     -1.16016617	     -0.02755964	     -0.30492313	     32.83232647	     -2.83688284	     -8.96121813	    -11.39991669	     -2.74159632	      7.13577704	     14.47265891	     -7.18925451	     -0.83497747	     19.13810176	    -16.20568294	      5.06093565	      1.18053468	     15.07176434	      5.10711046	     -0.41219029	    -10.15771302
      5.12000000	     -8.76755044	     -2.22258122	     10.26212632	     -1.15341799	     -0.02826941	     -0.30413545	     32.89035320	     -2.59221371	     -9.01618645	    -11.82356420	     -3.69906869	      6.76410745	     15.31331704	     -7.17935582	     -1.11613025	     18.71311091	    -16.64560038	      4.51503262	      1.63550308	     16.03586413	      5.45611715	     -0.21666668	    -10.04861966
      5.12500000	     -8.87708853	     -2.47288249	     10.40398535	     -1.14679756	     -0.02882279	     -0.30353945	     32.93747254	     -2.37622079	     -9.22929299	    -12.28498043	     -4.45429985	      6.46858809	     15.46514562	     -7.08303117	     -1.47590538	     18.50777129	    -17.21787052	      4.13690545	      2.28096676	     16.48823909	      5.79248447	      0.02899109	    -10.12729566
      5.13000000	     -9.00428870	     -2.77038450	     10.39523256	     -1.14013967	     -0.02935566	     -0.30273797	     33.03880536	     -2.01641515	     -9.19301354	    -12.75418996	     -5.30170486	      6.04877666	     15.66278277	     -6.94792507	     -1.87869391	     18.05289435	    -17.81354104	      3.67277416	      2.96135164	     17.17540198	      6.15960577	      0.34226403	    -10.04401797
      5.13500000	     -9.12552710	     -3.07508268	     10.34796667	     -1.13347840	     -0.02974899	     -0.30183416	     33.15080805	     -1.60735522	     -9.03856499	    -13.24197644	     -6.18825581	      5.52083986	     15.85781068	     -6.81258468	     -2.30380956	     17.53055435	    -18.38149904	      3.03765537	      3.66572187	     18.09200851	      6.52227789	      0.65528167	     -9.96656421
      5.14000000	     -9.23375702	     -3.43894011	     10.29945843	     -1.12691326	     -0.03005460	     -0.30098278	     33.27202509	     -1.13149919	     -8.78594333	    -13.76854240	     -6.97987190	      5.00260469	     15.90985398	     -6.62311824	     -2.78296641	     16.97454277	    -19.03899568	      2.37744354	      4.35943230	     19.02314303	      6.86227365	      1.05207670	     -9.86176520
      5.14500000	     -9.34085745	     -3.83061918	     10.20659944	     -1.12034916	     -0.03026340	     -0.30007999	     33.40989247	     -0.58465114	     -8.39767292	    -14.33159767	     -7.69977431	      4.42832203	     15.79709607	     -6.40262151	     -3.29711989	     16.34037056	    -19.73635054	      1.65639086	      5.14631703	     20.00135114	      7.20646970	      1.48803175	     -9.74069912
      5.15000000	     -9.43857378	     -4.23951774	     10.08728785	     -1.11379552	     -0.03037500	     -0.29912079	     33.54952489	      0.01685987	     -7.89554220	    -14.92901556	     -8.31822365	      3.80004988	     15.52314607	     -6.15342116	     -3.84073140	     15.62282088	    -20.47914230	      0.84632303	      5.99330284	     21.04849489	      7.53911641	      1.94266816	     -9.60572155
      5.15500000	     -9.50441671	     -4.65798687	      9.92767686	     -1.10721272	     -0.03034663	     -0.29812971	     33.65401246	      0.68190685	     -7.26140250	    -15.55080833	     -8.79684867	      3.09393260	     14.85682885	     -5.94687349	     -4.40554213	     14.90319813	    -21.14429148	     -0.37638081	      6.55810743	     22.86006213	      7.83876576	      2.42568748	     -9.41629918
      5.16000000	     -9.57168966	     -5.08090566	      9.80877776	     -1.10065252	     -0.03029087	     -0.29717168	     33.76222330	      1.32602554	     -6.70135940	    -16.19606464	     -9.11646994	      2.53014413	     14.43770100	     -5.63086257	     -4.99831169	     14.03540989	    -22.03940489	     -1.19530474	      7.74336864	     23.62466601	      8.14029953	      2.89536118	     -9.31185529
